# xmcd
# 
# Track frame offsets:
#     150
#     13096
#     29834
#     50414
#     65305
#     79074
#     100274
#     107338
#     124424
#     134264
#     147881
#     165723
#     178738
#     193339
#     208128
# 
# Disc length: 2969
# 
# Revision: 3
# Processed by: cddbd v1.5.2PL0 Copyright (c) Steve Scherf et al.
# Submitted via: fre:ac v1.0.27
# 
DISCID=dd0b970f
DTITLE=Eric Bibb - Booker's Guitar
DYEAR=2010
DGENRE=Blues
TTITLE0=Hooker's Guitar
TTITLE1=With My Maker I am One
TTITLE2=Flood Water
TTITLE3=Walkin' Blues Again
TTITLE4=Sunrise Blues
TTITLE5=Wayfaring Stranger
TTITLE6=Train From Aberdeen
TTITLE7=New Home
TTITLE8=Nobody's Fault But Mine
TTITLE9=One Soul To Save
TTITLE10=Rocking Chair
TTITLE11=Turning Pages
TTITLE12=A Good Woman
TTITLE13=Tell Riley
TTITLE14=A - Z Blues
EXTD=
EXTT0=
EXTT1=
EXTT2=
EXTT3=
EXTT4=
EXTT5=
EXTT6=
EXTT7=
EXTT8=
EXTT9=
EXTT10=
EXTT11=
EXTT12=
EXTT13=
EXTT14=
PLAYORDER=
